<svg width="43" height="42" viewBox="0 0 43 42" fill="none" xmlns="http://www.w3.org/2000/svg">
<g id="spark, sparks, sparkle, stars, 30">
<path id="Vector" d="M7.17286 14.047C8.12388 14.5219 9.0747 15.0964 9.87245 15.8913C10.2655 16.2894 10.6108 16.7315 10.9016 17.2085C11.1845 17.6779 11.4249 18.1714 11.6197 18.6832C12.0237 19.7589 12.243 20.8717 12.4131 21.9621C12.4577 22.2327 12.4978 22.5031 12.5357 22.7726L12.6446 23.5797L11.6524 23.7024C11.4933 22.433 11.3687 21.1286 11.4779 19.8053C11.5818 18.4879 11.9302 17.1455 12.6369 15.9696C12.8143 15.674 13.0139 15.3921 13.2341 15.1264C13.4548 14.8557 13.7001 14.6058 13.9668 14.3798C14.0318 14.3204 14.1024 14.2688 14.1715 14.215C14.2415 14.1626 14.3089 14.1058 14.3815 14.0574C14.5261 13.9599 14.6697 13.8593 14.8211 13.7746C15.1183 13.5988 15.428 13.445 15.7478 13.3144C16.0618 13.1853 16.3828 13.0737 16.7093 12.9799C17.0326 12.8902 17.3572 12.8072 17.681 12.7423C18.3291 12.6054 18.9732 12.5132 19.6082 12.4225L19.6708 13.6187L19.1049 13.6066C18.49 13.5951 17.8696 13.5624 17.2443 13.5121C16.6043 13.4664 15.9686 13.3731 15.3427 13.2328C14.6828 13.0862 14.0504 12.8366 13.4692 12.4931C13.169 12.3088 12.8914 12.0903 12.6421 11.842C12.3938 11.5924 12.1777 11.3131 11.9987 11.0105C11.6452 10.4193 11.4283 9.80077 11.243 9.20579C11.0559 8.60714 10.9 7.99928 10.7761 7.38462C10.649 6.77102 10.5583 6.15054 10.5043 5.52637C10.4783 5.21442 10.458 4.90211 10.4483 4.58947L10.441 4.35504C10.4392 4.27692 10.4412 4.19864 10.4346 4.12063C10.4255 3.96449 10.4236 3.8081 10.4178 3.65171L11.4847 3.70191C11.395 4.84293 11.2991 6.00344 11.0779 7.16963C11.0477 7.31514 11.0201 7.46128 10.9875 7.60643L10.8781 8.04124L10.7531 8.4743L10.6109 8.90453C10.4094 9.4824 10.1523 10.0396 9.84294 10.5683C9.24484 11.5677 8.42452 12.4178 7.44481 13.0534C7.06605 13.3066 6.65166 13.5026 6.21514 13.635C6.05574 13.6804 5.89295 13.7131 5.72832 13.7327C5.65495 13.7407 5.58582 13.7459 5.52091 13.7483L5.47296 13.7497L5.43417 13.7448C5.40693 13.7411 5.38066 13.7376 5.35535 13.7341C5.04146 13.6886 4.86718 13.6343 5.10901 13.398C5.144 13.3652 5.18099 13.3346 5.21978 13.3063C5.24006 13.2907 5.26872 13.2729 5.28701 13.2581C5.304 13.2439 5.32175 13.2292 5.34025 13.2138C5.4142 13.1529 5.50356 13.0933 5.60219 13.0228C5.69999 12.9506 5.81368 12.882 5.93307 12.7972C5.99365 12.757 6.05695 12.715 6.12295 12.6712C6.1877 12.6257 6.25547 12.5794 6.32627 12.5324C6.69264 12.2827 7.04216 12.0094 7.3726 11.7142C7.71007 11.4176 8.02404 11.0956 8.3117 10.7509C8.70378 10.2757 9.03334 9.75271 9.29243 9.19465C9.55433 8.62472 9.76269 8.03196 9.91487 7.42393C10.2415 6.19848 10.3893 4.90951 10.5279 3.61033L10.528 3.6096C10.5395 3.50196 10.592 3.40278 10.6747 3.33236C10.7574 3.26195 10.8641 3.22563 10.9729 3.23084C11.0816 3.23605 11.1843 3.28241 11.2598 3.36041C11.3353 3.4384 11.378 3.54215 11.379 3.65039C11.381 3.86115 11.374 4.07232 11.3888 4.28291C11.4023 4.49342 11.4182 4.70367 11.4397 4.91338C11.4806 5.33296 11.5416 5.75002 11.6111 6.16489C11.7487 6.99413 11.9503 7.8116 12.2142 8.61005C12.383 9.15608 12.6023 9.68541 12.8692 10.1913C12.9948 10.4199 13.1428 10.6357 13.3111 10.8353C13.4753 11.0229 13.6573 11.1945 13.8544 11.3476C14.0394 11.4852 14.2359 11.607 14.4416 11.7116C14.6568 11.8169 14.879 11.9076 15.1065 11.9831C15.5828 12.1342 16.0721 12.2406 16.5683 12.3011C17.5845 12.4325 18.6407 12.4517 19.703 12.4907L19.7092 12.4909C19.8423 12.4958 19.9687 12.5502 20.0633 12.6433C20.1579 12.7365 20.2138 12.8616 20.22 12.9938C20.2261 13.126 20.182 13.2557 20.0964 13.3571C20.0109 13.4585 19.8901 13.5243 19.758 13.5413C18.9515 13.6453 18.1579 13.7542 17.3953 13.9308C16.6358 14.1112 15.9003 14.3477 15.2508 14.7188C14.9738 14.8761 14.7122 15.0588 14.4695 15.2647C14.2283 15.4751 14.0073 15.7074 13.8095 15.9586C13.4145 16.478 13.104 17.0559 12.8893 17.671C12.6695 18.2951 12.5277 18.9438 12.4672 19.6023C12.4042 20.2716 12.3902 20.9447 12.4253 21.6161C12.4535 22.2696 12.5204 22.9271 12.5979 23.5869L12.5984 23.5913C12.6123 23.7096 12.5784 23.8286 12.5042 23.9221C12.43 24.0157 12.3215 24.0761 12.2024 24.0903C12.0834 24.1044 11.9636 24.0711 11.8693 23.9976C11.775 23.9241 11.7138 23.8164 11.6992 23.6981C11.5689 22.6384 11.4314 21.5877 11.1849 20.5749C11.0691 20.0708 10.9211 19.5746 10.7419 19.0892C10.563 18.6124 10.3393 18.1534 10.0738 17.7182C10.0041 17.6131 9.93943 17.504 9.86615 17.4015L9.63964 17.099C9.48034 16.9044 9.31092 16.7181 9.13208 16.5411C8.76195 16.1885 8.35633 15.8747 7.92162 15.6046C7.70272 15.4665 7.47706 15.3363 7.24655 15.2121C7.13133 15.1501 7.01498 15.0895 6.8975 15.0303L6.72058 14.9423L6.63214 14.8992L6.54812 14.8618C6.43851 14.8094 6.31823 14.767 6.20138 14.7211C6.0798 14.6818 5.96095 14.637 5.83616 14.6031C5.59049 14.5272 5.33681 14.4695 5.0833 14.4149C4.59161 14.3131 4.09273 14.249 3.59112 14.2235C3.10495 14.1997 2.6252 14.2281 2.22648 14.3653L2.11187 13.9122L2.1115 13.8822H2.11195H2.11476H2.11851H2.12603L2.14105 13.8823C2.15079 13.8825 2.16077 13.8827 2.1748 13.882L2.25239 13.8795L2.4102 13.873C2.51605 13.8683 2.62129 13.8637 2.72594 13.859C2.93604 13.8507 3.14358 13.8425 3.34855 13.8344C3.75917 13.8196 4.16005 13.8108 4.55173 13.8026C4.68499 13.7976 4.81845 13.8028 4.95091 13.8181C5.00229 13.8222 5.033 13.8375 5.08038 13.8374C5.11122 13.8365 5.14159 13.8451 5.16743 13.8618L5.24519 13.7716C5.2342 13.8128 5.21899 13.8309 5.22624 13.8346C5.23119 13.8383 5.25819 13.8267 5.28286 13.7873C5.28585 13.7826 5.28774 13.7772 5.28841 13.7717C5.28908 13.7661 5.28851 13.7605 5.28673 13.7552C5.28496 13.7499 5.28203 13.7451 5.27815 13.741C5.27427 13.737 5.26954 13.7339 5.2643 13.7318C5.25905 13.7298 5.25343 13.729 5.24782 13.7294C5.24222 13.7298 5.23677 13.7314 5.23187 13.7342C5.22698 13.7369 5.22275 13.7407 5.21949 13.7452C5.21624 13.7498 5.21404 13.755 5.21304 13.7605L5.18882 13.8965C5.18432 13.9216 5.15015 13.96 5.08672 14.0028C5.04268 14.0384 4.99473 14.069 4.94376 14.094C4.7867 14.1703 4.62104 14.2278 4.45028 14.2652C4.08039 14.3497 3.70787 14.4245 3.32981 14.4956C3.14089 14.531 2.95066 14.565 2.75911 14.5978L2.46922 14.6455L2.32024 14.6682L2.24269 14.6791C2.21356 14.6829 2.17001 14.6868 2.13421 14.6899C2.00595 14.7008 1.87788 14.6669 1.77217 14.5939C1.66646 14.5208 1.58978 14.4134 1.55542 14.2901C1.52105 14.1668 1.53116 14.0354 1.58401 13.9188C1.63685 13.8021 1.72909 13.7075 1.84474 13.6513L1.88172 13.6336C2.17963 13.4958 2.49608 13.4017 2.82117 13.3542C2.97176 13.336 3.12536 13.3127 3.27302 13.3073C3.34739 13.3032 3.42253 13.2972 3.4964 13.2953L3.71689 13.2935C4.302 13.2993 4.88481 13.367 5.45548 13.4955C5.74383 13.5573 6.02888 13.6335 6.30957 13.7236L6.52247 13.7942L6.7363 13.8751C6.80703 13.9002 6.87983 13.9343 6.95172 13.9654L7.05964 14.0129L7.15579 14.059C7.16134 14.0548 7.16653 14.051 7.17286 14.047Z" fill="#374151"/>
<path id="Vector_2" d="M32.4532 16.499C32.949 17.0898 33.3488 17.7541 33.6382 18.4677C33.6737 18.5571 33.7119 18.6452 33.7445 18.7355L33.8316 19.0108C33.8592 19.1029 33.8917 19.1933 33.9149 19.2867L33.9787 19.5684C33.9981 19.6627 34.0245 19.7552 34.0377 19.8508L34.0771 20.1371L34.0964 20.2802C34.1031 20.3274 34.1095 20.3751 34.1129 20.4276C34.1207 20.5305 34.1246 20.6369 34.1219 20.7476C34.1193 20.9466 34.0867 21.144 34.0254 21.3335C33.9872 21.4439 33.9362 21.5494 33.8734 21.648C33.8034 21.7531 33.7186 21.8476 33.6215 21.9287L33.6146 21.9345C33.5343 22.0015 33.4354 22.0428 33.331 22.053C33.2266 22.0631 33.1216 22.0417 33.0297 21.9915C32.9377 21.9412 32.8633 21.8645 32.816 21.7715C32.7687 21.6784 32.7509 21.5733 32.7648 21.4699C32.8298 20.9912 32.9222 20.5166 33.0414 20.0483C33.2354 19.2653 33.536 18.5124 33.9348 17.8102C34.3435 17.0923 34.8775 16.4525 35.512 15.9207C36.1616 15.3874 36.9118 14.9883 37.7186 14.747C38.5475 14.5021 39.4238 14.4611 40.2721 14.6277C40.3967 14.6533 40.5102 14.7167 40.597 14.8091C40.6838 14.9016 40.7395 15.0186 40.7565 15.1439C40.7735 15.2692 40.7509 15.3967 40.6918 15.5087C40.6328 15.6207 40.5401 15.7117 40.4268 15.7691L40.4155 15.7747C40.1395 15.9103 39.8436 16.0018 39.5389 16.0459C39.2587 16.085 38.9753 16.0962 38.6929 16.0794C38.4223 16.0661 38.1644 16.0342 37.9166 15.9989C37.6694 15.9628 37.4335 15.9276 37.1774 15.8812C36.8092 15.8196 36.4488 15.7183 36.1026 15.579C35.9131 15.5 35.732 15.4026 35.5617 15.2882C35.3879 15.1703 35.2274 15.034 35.0831 14.8817C34.8152 14.59 34.5963 14.2572 34.4348 13.8963C34.2852 13.5628 34.1678 13.216 34.0841 12.8605C33.7464 11.483 33.7749 10.0418 34.1669 8.67853L34.1675 8.67653C34.2018 8.55771 34.2703 8.45146 34.3646 8.37086C34.4589 8.29027 34.5749 8.23884 34.6982 8.22293C34.8215 8.20701 34.9469 8.2273 35.0587 8.28129C35.1706 8.33528 35.2642 8.42061 35.3279 8.52678C35.5276 8.87163 35.6357 9.26133 35.642 9.65918C35.6485 10.0079 35.605 10.3559 35.513 10.6925C35.4723 10.8549 35.4196 11.0051 35.3693 11.1568C35.3132 11.3065 35.2585 11.457 35.1918 11.6022C35.0647 11.8948 34.9156 12.1775 34.7458 12.4479C34.071 13.54 33.0927 14.4147 31.929 14.9667C31.1887 15.3116 30.3848 15.5011 29.5674 15.5233C29.2468 15.5344 28.9265 15.4907 28.6207 15.3941C28.5587 15.3735 28.5007 15.3522 28.4466 15.3297C28.3927 15.3051 28.3426 15.2799 28.2964 15.2542C28.2117 15.2093 28.133 15.1541 28.062 15.09C27.875 14.9226 27.9105 14.7879 28.0962 14.6998C28.2826 14.6136 28.6193 14.5681 29.0767 14.5224L29.2959 14.4989L29.5177 14.4694C29.6661 14.4469 29.8165 14.4282 29.9662 14.4003C30.2652 14.3478 30.5608 14.2775 30.8514 14.19C31.4121 14.0167 31.9385 13.7485 32.4075 13.3972C33.3551 12.6892 34.0435 11.6923 34.3672 10.5588C34.4445 10.3005 34.4837 10.0325 34.4836 9.76302C34.4871 9.54064 34.427 9.32186 34.3104 9.13205L35.3072 9.00176C35.2057 9.40279 35.1422 9.81239 35.1177 10.2252C35.0702 10.9874 35.1747 11.7711 35.3068 12.4912C35.3983 13.0044 35.5585 13.4902 35.8189 13.8637C35.9415 14.0433 36.0969 14.1984 36.2769 14.3212C36.4734 14.4453 36.6873 14.5396 36.9117 14.6009C37.1676 14.6712 37.4276 14.7261 37.6901 14.7653C37.9699 14.8103 38.2483 14.8554 38.5104 14.882C39.0375 14.9384 39.523 14.917 39.8941 14.7362L40.0224 15.7616L39.8384 15.7269L39.7465 15.7089L39.6532 15.6979L39.4665 15.6755L39.2779 15.666C38.8492 15.6498 38.4206 15.6998 38.0073 15.814C37.5866 15.9314 37.1831 16.1032 36.8073 16.325C36.4292 16.5472 36.0802 16.815 35.7682 17.1224C35.4532 17.4344 35.1734 17.7797 34.9338 18.1521C34.2759 19.1623 33.8879 20.3586 33.7268 21.5813L32.9988 21.1915C33.0423 21.1551 33.0751 21.1079 33.0939 21.0547C33.1242 20.9718 33.1415 20.8848 33.1451 20.7967C33.1509 20.6872 33.148 20.5775 33.1364 20.4684L33.0841 20.1037C33.0662 19.9819 33.0414 19.8612 33.0098 19.7422L32.9682 19.5619C32.9555 19.5014 32.9317 19.4439 32.9141 19.3846C32.8747 19.2674 32.8411 19.1481 32.7975 19.0321L32.6546 18.6882C32.4475 18.2337 32.19 17.8036 31.8869 17.4059C31.5766 17.0109 31.2254 16.6493 30.8391 16.3272C30.3512 15.9307 29.8203 15.5899 29.2561 15.3109C29.2222 15.2933 29.1888 15.2743 29.1547 15.2575L29.0506 15.2121L28.8438 15.119C28.708 15.0505 28.5666 15.005 28.428 14.9495L28.2202 14.8671C28.1522 14.8428 28.0848 14.8209 28.017 14.8038C27.8831 14.7624 27.7397 14.7618 27.6054 14.8021C27.5726 14.8146 27.5427 14.8299 27.5191 14.8405C27.5186 14.8408 27.5182 14.8411 27.5178 14.8415C27.5174 14.8418 27.5171 14.8423 27.517 14.8428L27.5142 14.8504C27.5054 14.8778 27.5073 14.9076 27.5196 14.9338C27.5307 14.9578 27.5466 14.9792 27.5664 14.9969C27.6021 15.0286 27.6468 15.0486 27.6944 15.0542C27.7169 15.0572 27.7398 15.0554 27.7616 15.049C27.781 15.0453 27.8002 15.0402 27.8189 15.0337C27.8504 15.0218 27.8734 15.0143 27.8864 15.0227C27.8991 15.0305 27.9028 15.0551 27.8842 15.0972C27.8706 15.1229 27.8525 15.1459 27.8307 15.1653C27.8045 15.1964 27.7705 15.2199 27.732 15.2335C27.6399 15.2706 27.5376 15.2739 27.4433 15.2428C27.3735 15.2199 27.3109 15.1794 27.2615 15.1252C27.2261 15.086 27.1982 15.0406 27.179 14.9914C27.1571 14.9331 27.1472 14.871 27.1498 14.8088C27.1516 14.7616 27.1671 14.7159 27.1944 14.6772L27.2627 14.5798C27.2986 14.5286 27.3406 14.4819 27.3878 14.4408C27.4141 14.4179 27.4421 14.3969 27.4715 14.3781C27.5028 14.3606 27.5353 14.3453 27.5688 14.3322C27.7269 14.2725 27.895 14.2436 28.0641 14.247C28.1962 14.2476 28.328 14.2591 28.4582 14.2814L28.8161 14.338L28.9061 14.3534L28.9944 14.3756L29.1715 14.4209C29.6489 14.5443 30.1099 14.7234 30.5449 14.9544C31.2636 15.3542 31.9037 15.8797 32.4344 16.5056C32.4405 16.5034 32.4461 16.5014 32.4532 16.499Z" fill="#374151"/>
<path id="Vector_3" d="M21.3088 29.1944L21.6859 29.4042L22.0487 29.638L22.1389 29.697L22.2255 29.7615L22.3985 29.8908C22.4558 29.9343 22.5142 29.9763 22.5704 30.0212L22.7342 30.1621C22.9533 30.3492 23.1617 30.5484 23.3583 30.7586L23.6411 31.0847C23.7337 31.1945 23.8153 31.3127 23.9024 31.4265C24.2365 31.8897 24.5198 32.3871 24.7474 32.9102C24.9676 33.4327 25.1345 33.9758 25.2455 34.5314C25.2708 34.6791 25.3017 34.8259 25.3208 34.9746L25.3707 35.4215L25.3926 35.8709C25.4004 36.0207 25.3905 36.171 25.39 36.3209C25.3704 36.9216 25.2843 37.5183 25.1333 38.1002L25.0153 38.5097C24.9813 38.6273 24.9057 38.7288 24.8025 38.7955C24.6992 38.8622 24.5752 38.8895 24.4532 38.8725C24.3313 38.8555 24.2196 38.7952 24.1388 38.7029C24.058 38.6106 24.0134 38.4923 24.0134 38.3699L24.0135 38.3462C24.0147 37.0248 24.0118 35.6621 24.2674 34.2934C24.393 33.6007 24.5984 32.9246 24.8797 32.2786C25.167 31.6146 25.561 31.0015 26.0461 30.4631C26.5437 29.9298 27.1283 29.4839 27.7753 29.1441C28.4032 28.8183 29.0637 28.5589 29.746 28.37C30.0815 28.2748 30.4178 28.1934 30.7553 28.1215C31.0937 28.0504 31.4402 27.9877 31.7982 27.9489C32.1641 27.9059 32.5331 27.895 32.9009 27.9164C33.2868 27.939 33.6681 28.0107 34.0356 28.1297C34.1567 28.1689 34.2627 28.2444 34.3391 28.3457C34.4154 28.447 34.4585 28.5693 34.4623 28.6958C34.4661 28.8224 34.4306 28.947 34.3605 29.0527C34.2904 29.1584 34.1892 29.2401 34.0707 29.2865L34.0574 29.2916C33.4787 29.5057 32.8669 29.6175 32.2494 29.6222C31.5943 29.6261 30.94 29.5744 30.2937 29.4676C29.6529 29.3792 29.0185 29.2501 28.3944 29.081C28.0718 28.9921 27.755 28.8838 27.4458 28.7567C27.1272 28.6282 26.8199 28.4739 26.5268 28.2953C26.2262 28.113 25.9441 27.9021 25.6844 27.6657C25.426 27.4279 25.1921 27.1652 24.9862 26.8813C24.5947 26.3326 24.2768 25.7356 24.0405 25.1052C23.5762 23.8942 23.2894 22.6232 23.1888 21.3311C23.1771 21.17 23.167 21.0087 23.1614 20.8472C23.1578 20.7665 23.1552 20.6857 23.1541 20.6049C23.1529 20.5234 23.1499 20.448 23.1516 20.3489C23.1515 20.1313 23.1839 19.9148 23.2477 19.7066C23.2914 19.569 23.3566 19.4391 23.441 19.3217C23.5418 19.1829 23.6722 19.0678 23.8228 18.9847L23.8291 18.9812C23.9028 18.9413 23.9837 18.9162 24.0672 18.9073C24.1506 18.8984 24.235 18.906 24.3156 18.9295C24.3961 18.9531 24.4711 18.9921 24.5365 19.0445C24.6018 19.0969 24.6561 19.1616 24.6963 19.2348C24.7394 19.3142 24.7654 19.4016 24.7725 19.4915C24.9611 22.0659 24.2925 24.6304 22.8699 26.7898C22.5386 27.2916 22.146 27.7505 21.701 28.1561C21.4731 28.3608 21.229 28.5469 20.971 28.7126C20.712 28.8791 20.4379 29.0214 20.1524 29.1375C19.6996 29.3286 19.2092 29.4156 18.7178 29.3919C18.4028 29.3804 18.0952 29.2936 17.821 29.1391C17.526 28.9524 17.5845 28.8235 17.8414 28.7635C17.972 28.726 18.1545 28.7028 18.3837 28.6593C18.6607 28.608 18.9341 28.5388 19.2021 28.4522C19.6135 28.314 20.0024 28.117 20.3566 27.8673C20.7251 27.605 21.0618 27.3011 21.3598 26.9616C21.7901 26.4653 22.1594 25.9199 22.4601 25.3369C22.7718 24.7516 23.0249 24.1374 23.2159 23.503C23.6007 22.234 23.7384 20.9037 23.6217 19.5834L24.3817 19.989C24.3819 19.9894 24.383 19.991 24.3819 19.9892L24.379 19.9851C24.3795 19.9859 24.3801 19.9867 24.3807 19.9875C24.3823 19.9895 24.3837 19.9909 24.3829 19.9898V19.9914C24.3786 19.9976 24.3749 20.0042 24.3721 20.0111C24.3523 20.0576 24.3395 20.1067 24.3341 20.1568C24.324 20.2355 24.32 20.3148 24.3222 20.3941L24.3334 20.6943C24.3543 21.1025 24.3978 21.5092 24.4573 21.913C24.5796 22.7193 24.7842 23.5111 25.0678 24.2763C25.2637 24.8197 25.5192 25.3401 25.8299 25.8278C25.9781 26.0572 26.1444 26.2745 26.3271 26.4778C26.415 26.5757 26.5078 26.6691 26.6051 26.7578C26.6543 26.801 26.7001 26.8474 26.7505 26.889L26.9017 27.0135C27.3548 27.3586 27.8627 27.6263 28.4043 27.8055C28.9774 27.998 29.5656 28.1425 30.1629 28.2374C30.7614 28.3479 31.367 28.417 31.9752 28.444C32.54 28.4712 33.1049 28.3897 33.6387 28.2042L33.658 29.2319C33.1294 29.0532 32.5325 29.024 31.9194 29.0853C31.6127 29.1141 31.3013 29.1646 30.9867 29.2248C30.6718 29.2859 30.3588 29.3547 30.0512 29.4338C29.3922 29.5952 28.7564 29.8386 28.1588 30.1584C27.578 30.4682 27.0628 30.8864 26.6414 31.3901C26.2239 31.9074 25.894 32.4888 25.6648 33.1116C25.4286 33.7493 25.2637 34.4109 25.173 35.0845C25.0206 36.1453 25.0043 37.2411 24.9902 38.3516L24.0881 38.2044C24.689 36.4439 24.4794 34.4147 23.5801 32.7642C23.5213 32.6626 23.4691 32.5566 23.4051 32.4581L23.2128 32.1626C23.1474 32.065 23.0725 31.9743 23.0029 31.8796C22.9669 31.8332 22.9336 31.7845 22.8954 31.74L22.7793 31.6076C22.6253 31.4301 22.4624 31.2604 22.2912 31.0991C22.1116 30.9468 21.9376 30.7872 21.743 30.6522C21.6497 30.5795 21.5527 30.5116 21.4525 30.4487C21.3522 30.3859 21.2542 30.319 21.1521 30.259L20.84 30.0875C20.7368 30.0288 20.6258 29.9849 20.5191 29.9326C20.0864 29.7326 19.634 29.5778 19.1692 29.4707C18.0615 29.2122 16.9112 29.19 15.7943 29.4055L15.7826 28.9649C16.4515 29.1671 17.1535 29.2379 17.8496 29.1733C18.2447 29.1364 18.4453 29.1258 18.4436 29.2103C18.441 29.2476 18.3888 29.3122 18.2763 29.3859C18.208 29.4306 18.1366 29.4702 18.0626 29.5045C18.0193 29.5255 17.9721 29.5467 17.9206 29.5664C17.8948 29.5762 17.8683 29.5876 17.8404 29.5965C17.8122 29.6046 17.7831 29.6127 17.753 29.6206C17.0549 29.8028 16.3256 29.8342 15.6142 29.7125C15.4965 29.692 15.389 29.6329 15.309 29.5447C15.229 29.4564 15.1809 29.3441 15.1726 29.2256C15.1642 29.1071 15.196 28.9892 15.2628 28.8907C15.3297 28.7922 15.4278 28.7188 15.5415 28.6822L15.5866 28.6678C16.2933 28.4439 17.0306 28.3303 17.7724 28.3311C18.3815 28.3293 18.9882 28.4064 19.5772 28.5605C20.1703 28.713 20.7449 28.9293 21.2909 29.2056C21.2967 29.2016 21.3022 29.1981 21.3088 29.1944Z" fill="#374151"/>
</g>
</svg>
