<svg width="159" height="161" viewBox="0 0 159 161" fill="none" xmlns="http://www.w3.org/2000/svg">
<g id="arrow, hand drawn, scribble, doodle, 10" clip-path="url(#clip0_1270_3308)">
<path id="Vector" d="M45.1021 76.2354C48.1046 75.0593 51.1569 73.9941 54.2672 73.1028C57.3816 72.2063 60.5476 71.5014 63.7481 70.9922C67.157 70.4504 70.6022 70.1628 74.0564 70.1316C78.6899 70.0649 83.3157 70.6516 87.8025 71.8749C90.0607 72.4994 92.2621 73.3258 94.3808 74.3447C95.4797 74.8616 96.5341 75.4727 97.5325 76.1714C98.5997 76.9132 99.5407 77.8287 100.318 78.8808C100.742 79.4617 101.078 80.1033 101.317 80.7844C101.586 81.546 101.675 82.3605 101.575 83.1606C101.463 83.9909 101.135 84.7735 100.624 85.4267C100.151 86.0284 99.5635 86.5255 98.8959 86.8883C98.2808 87.2268 97.621 87.4743 96.9362 87.6232C96.298 87.7577 95.6484 87.8311 94.9958 87.8424C93.7883 87.8749 92.5793 87.8055 91.3814 87.6348C89.0132 87.2992 86.6975 86.6402 84.4967 85.6756C82.287 84.7078 80.223 83.4213 78.3687 81.8556C76.0542 79.9128 74.1503 77.511 72.774 74.7981C72.5923 74.4257 72.4335 74.0423 72.2986 73.6502C72.159 73.2449 72.0525 72.8288 71.9803 72.4061C71.8168 71.548 71.8009 70.6687 71.9333 69.8076C72.0714 68.934 72.3703 68.0964 72.8141 67.3386C73.2388 66.6169 73.7662 65.9642 74.3793 65.4013C75.5309 64.3681 76.8447 63.539 78.2671 62.9481C78.9438 62.6515 79.6357 62.3916 80.3399 62.1694C80.6895 62.0591 81.04 61.954 81.393 61.8607C81.7465 61.7643 82.0832 61.6895 82.4292 61.6031C85.1767 60.9315 87.966 60.4448 90.7791 60.1462C102.051 58.9962 113.45 60.736 123.942 65.2077C124.338 65.3674 124.726 65.5488 125.115 65.7261C125.504 65.9063 125.896 66.0772 126.281 66.2676C127.048 66.6506 127.82 67.0234 128.569 67.4399C130.082 68.2418 131.543 69.1321 132.965 70.042C134.097 70.7718 135.185 71.5718 136.221 72.4373C136.637 72.7936 137.001 73.1162 137.313 73.4142C137.621 73.7201 137.881 73.9954 138.099 74.2429C138.734 74.9632 138.612 75.1091 137.878 74.7555C137.695 74.667 137.473 74.5473 137.215 74.3972C136.959 74.2448 136.663 74.0686 136.326 73.8685C135.991 73.668 135.623 73.4393 135.22 73.1824C134.812 72.9338 134.367 72.6649 133.893 72.3661C131.381 70.8111 128.788 69.3971 126.127 68.1302C120.046 65.2342 113.564 63.3277 106.919 62.4808C100.305 61.6134 93.6049 61.8412 87.0796 63.1552C86.6331 63.2505 86.1846 63.3462 85.7341 63.4424C85.2871 63.5519 84.8389 63.6617 84.3894 63.7718C83.9387 63.8748 83.4958 64.012 83.0487 64.1311C82.6012 64.2545 82.1528 64.3729 81.734 64.5086C80.092 64.9996 78.531 65.7323 77.1001 66.6838C76.0475 67.4112 75.2044 68.3369 74.8043 69.3914C74.6075 69.9243 74.5152 70.4922 74.5326 71.0631C74.5422 71.3611 74.5767 71.6579 74.6356 71.9503C74.6879 72.2465 74.7675 72.5372 74.8733 72.8186C74.9827 73.1147 75.1105 73.4034 75.256 73.6832L75.7555 74.5836C75.938 74.8764 76.1174 75.1714 76.3041 75.4617C76.5042 75.7433 76.6936 76.0326 76.9014 76.3088C77.7341 77.4197 78.6767 78.4406 79.714 79.3554C81.807 81.1937 84.2117 82.6252 86.8072 83.5776C88.1073 84.0544 89.4428 84.4218 90.8001 84.6762C92.1396 84.934 93.4998 85.0546 94.8605 85.0363L95.2333 85.0227L95.4197 85.0153L95.5884 85.0016C95.8102 84.984 96.0307 84.9537 96.249 84.911C96.6681 84.8306 97.0746 84.6947 97.4582 84.5065C97.8048 84.3384 98.1176 84.1064 98.3807 83.822C98.4976 83.6962 98.5978 83.5554 98.679 83.403C98.7587 83.2615 98.8177 83.1087 98.8539 82.9495C98.8949 82.7896 98.9128 82.6243 98.9072 82.4588C98.9047 82.2796 98.8816 82.1012 98.8386 81.9271C98.7337 81.5278 98.568 81.1473 98.3476 80.7995C98.1006 80.4073 97.8152 80.0415 97.4958 79.7077C97.1625 79.3563 96.8045 79.0302 96.4246 78.732C95.6212 78.1138 94.7644 77.5716 93.8651 77.1123C93.4064 76.8714 92.9361 76.642 92.4559 76.4196C91.9791 76.2006 91.4983 75.9908 91.0135 75.7903C89.0613 74.9975 87.0533 74.3588 85.0074 73.8797C81.3335 73.0253 77.5784 72.6069 73.8174 72.6329C70.0331 72.6596 66.2617 73.0309 62.548 73.7424C60.6857 74.0931 58.836 74.5115 56.9988 74.9978C56.0819 75.2437 55.1673 75.4978 54.2601 75.7833L52.8974 76.2053L51.5429 76.656C50.6373 76.9488 49.7462 77.2887 48.8475 77.6049C47.9579 77.9486 47.0613 78.2726 46.1783 78.6364C44.4025 79.3359 42.6492 80.1001 40.901 80.8769C35.3324 83.3843 30.115 85.8778 25.2702 87.7232C23.0436 88.5735 22.8692 87.8979 25.2125 86.4387C28.5525 84.4152 32.1149 82.3843 35.7538 80.5135C38.7428 78.97 41.9192 77.5855 45.0916 76.2913C45.0945 76.2726 45.0973 76.2553 45.1021 76.2354Z" fill="#4B5563"/>
<path id="Vector_2" d="M45.5213 87.5551C43.5277 87.2999 41.519 87.2025 39.5133 87.2637C38.981 87.2946 38.4463 87.3203 37.912 87.3596C37.3785 87.4176 36.8453 87.4825 36.3161 87.5625C34.0311 87.9513 31.7584 88.5245 29.4785 89.1398L26.0529 90.0865C24.9094 90.4037 23.7626 90.7348 22.6071 91.0237L22.59 91.028C22.1925 91.1274 21.7711 91.0613 21.4187 90.8444C21.0662 90.6275 20.8116 90.2774 20.7107 89.8712C20.6484 89.6146 20.6496 89.3467 20.714 89.0918C20.7783 88.8368 20.904 88.6026 21.0796 88.4103L23.3716 85.9289C25.8273 83.2398 28.2868 80.5497 30.7686 77.8708C33.2513 75.193 35.7549 72.5261 38.339 69.9163C39.1315 69.1372 39.9654 68.4031 40.8371 67.7173C41.6538 67.0526 42.3726 66.8272 42.9516 66.845C43.7965 66.8749 43.7747 67.7707 42.8406 68.9005C42.219 69.6408 41.5544 70.3423 40.8504 71.0014C37.677 74.0817 34.703 77.3687 31.9469 80.8421C31.1801 81.7999 30.4152 82.8288 29.5534 83.6527C27.3202 85.7893 25.3021 88.155 23.2285 90.4617L21.8636 88.1264C22.5529 87.9401 23.2442 87.7649 23.9408 87.613C26.6864 87.0022 29.4204 86.2339 32.2272 85.6785C34.7458 85.1605 37.3016 84.8426 39.8717 84.7274C42.4441 84.6387 45.0211 84.7792 47.5733 85.1472C48.0787 85.2222 48.5753 85.3085 49.0601 85.409C49.5417 85.5253 50.0105 85.6575 50.4665 85.8058C51.3506 86.0873 52.1983 86.4783 52.9906 86.9698C53.3433 87.1907 53.4763 87.4471 53.4057 87.6607C53.336 87.8686 53.0597 88.0558 52.605 88.076C51.968 88.0691 51.3231 88.0233 50.675 87.9893C50.0267 87.9597 49.3768 87.9099 48.7317 87.8504C48.2012 87.8199 47.6688 87.756 47.135 87.6823L46.7345 87.6264L46.3341 87.5853C46.0671 87.5596 45.8003 87.5339 45.534 87.5081L45.5213 87.5551Z" fill="#4B5563"/>
</g>
<defs>
<clipPath id="clip0_1270_3308">
<rect width="114.234" height="112.802" fill="white" transform="matrix(0.61642 0.787418 -0.776856 0.629678 87.6824 0)"/>
</clipPath>
</defs>
</svg>
