<svg width="154" height="156" viewBox="0 0 154 156" fill="none" xmlns="http://www.w3.org/2000/svg">
<g id="arrow, hand drawn, scribble, doodle, down, curvy, curly, up, right, loop, swirl, 73" clip-path="url(#clip0_1270_3311)">
<path id="Vector" d="M107.64 66.2677C106.48 66.7769 105.374 67.4082 104.341 68.1513C103.838 68.5222 103.359 68.9259 102.907 69.36L102.572 69.6866L102.269 70.0263C102.065 70.2529 101.873 70.4904 101.693 70.7377C100.957 71.7337 100.397 72.8528 100.039 74.044C99.6652 75.2172 99.528 76.454 99.6353 77.6793L99.6917 78.1548C99.7063 78.3144 99.7526 78.4652 99.7803 78.6216C99.8427 78.9314 99.9267 79.2361 100.032 79.5334C100.052 79.6094 100.08 79.683 100.115 79.7532L100.21 79.9679C100.267 80.1139 100.334 80.2561 100.408 80.3938C100.557 80.6671 100.72 80.932 100.897 81.1873C101.078 81.4344 101.28 81.6646 101.5 81.8752C101.712 82.0866 101.943 82.2769 102.19 82.4435C102.654 82.767 103.189 82.9688 103.749 83.0312C104.519 83.0845 105.287 82.8918 105.948 82.4798C106.311 82.2672 106.65 82.0124 106.956 81.7204C107.036 81.6496 107.11 81.5705 107.187 81.4958C107.259 81.4164 107.328 81.3328 107.399 81.2519C107.547 81.0947 107.683 80.927 107.808 80.7501C107.928 80.5689 108.064 80.3995 108.173 80.2103L108.492 79.6364L108.757 79.0304C108.847 78.8294 108.899 78.6111 108.974 78.4027C109.232 77.5473 109.36 76.6571 109.354 75.7637C109.35 73.979 108.785 72.2472 107.742 70.8237L107.322 70.3365C107.252 70.2539 107.177 70.176 107.097 70.103C107.018 70.0286 106.945 69.9477 106.862 69.8779C106.539 69.5873 106.193 69.3255 105.826 69.0952C105.082 68.6385 104.272 68.3013 103.426 68.0953C101.681 67.6931 99.8662 67.6983 98.1171 68.1104C96.3399 68.4972 94.641 69.2008 93.0985 70.1891C91.5455 71.2366 90.1079 72.4536 88.8112 73.8183C87.488 75.1947 86.2497 76.681 85.0136 78.2022C83.4749 80.0658 81.9605 81.9715 80.2411 83.7967C79.3499 84.7612 78.3317 85.5942 77.2163 86.2713C76.6255 86.6177 75.9961 86.8895 75.342 87.0805C74.6906 87.2654 74.022 87.3772 73.3479 87.4141C72.6904 87.4415 72.0322 87.4113 71.3805 87.3239C70.7465 87.2318 70.119 87.0997 69.5015 86.9283C68.3024 86.5878 67.133 86.1485 66.0045 85.6148C63.789 84.5877 61.7008 83.4101 59.5896 82.3669C57.4849 81.3191 55.3394 80.4165 53.1232 79.9415C52.0124 79.7051 50.8845 79.5583 49.7498 79.5023C47.4741 79.4006 45.1944 79.6746 42.9985 80.3137C41.9058 80.6361 40.8383 81.0432 39.8051 81.5314C38.7779 82.025 37.7919 82.6043 36.8571 83.2637L36.1659 83.7699L35.5021 84.3142C35.2763 84.4899 35.0713 84.6917 34.8587 84.8837C34.6475 85.0775 34.4327 85.2672 34.2363 85.4775C33.2501 86.4593 32.3449 87.5225 31.5299 88.6562C30.7218 89.7925 30.0165 91.0011 29.4226 92.267C29.2715 92.5638 29.1522 92.8585 29.0277 93.1364C28.9031 93.4144 28.7789 93.6781 28.6791 93.937C28.5734 94.1937 28.4691 94.4377 28.366 94.6688C28.2743 94.9035 28.1864 95.1266 28.0976 95.3375C27.9112 95.7571 27.7713 96.14 27.6191 96.4766C27.4618 96.8125 27.3364 97.1111 27.206 97.3697C26.826 98.123 26.5583 98.1056 26.4539 97.3635C26.4246 97.1351 26.409 96.9049 26.4071 96.6743C26.4136 96.4028 26.4377 96.0892 26.4736 95.7339C26.58 94.8661 26.7665 94.0099 27.0307 93.1768C27.4414 91.8922 27.9699 90.6492 28.6091 89.4647C29.2647 88.2634 30.029 87.127 30.8919 86.0706C32.8388 83.667 35.2398 81.6887 37.9494 80.2556C40.6481 78.8442 43.5835 77.9751 46.5954 77.6958C49.604 77.4034 52.635 77.7274 55.5107 78.6485C58.37 79.5694 60.9988 80.9458 63.5853 82.243C65.0118 82.9542 66.4722 83.679 67.9163 84.2557C68.6273 84.5413 69.3537 84.7857 70.0921 84.9877C70.7949 85.1753 71.5126 85.301 72.2373 85.3633C73.3321 85.4686 74.4377 85.3076 75.4638 84.8934C76.5021 84.4194 77.4467 83.7531 78.2498 82.9286C79.1177 82.0525 79.9421 81.1325 80.72 80.1723C81.5223 79.207 82.3094 78.2174 83.1045 77.2238C84.6929 75.1868 86.4094 73.2575 88.2431 71.4482C89.1895 70.5364 90.2029 69.7002 91.2741 68.9469C93.9997 67.0156 97.216 65.9446 100.521 65.8679C102.537 65.8107 104.529 66.2874 106.304 67.2515C107.196 67.7542 108.002 68.3994 108.692 69.1631C109.391 69.9285 109.948 70.8169 110.339 71.7859C110.736 72.7387 110.986 73.7494 111.082 74.7825C111.173 75.8111 111.123 76.8487 110.936 77.8657C110.762 78.7767 110.471 79.6612 110.071 80.4963C109.651 81.3335 109.116 82.1057 108.483 82.7894C107.828 83.4795 107.059 84.0473 106.214 84.467C105.77 84.6828 105.301 84.8399 104.819 84.9346C104.321 85.0299 103.812 85.0481 103.31 84.9884C102.326 84.8562 101.395 84.4681 100.603 83.8613C100.219 83.5753 99.8657 83.2493 99.5478 82.8885C99.3886 82.7111 99.2384 82.5254 99.0977 82.3323C98.9513 82.1425 98.8394 81.9358 98.7099 81.7372L98.5228 81.4357C98.4594 81.3358 98.4161 81.2248 98.362 81.1196C98.2604 80.906 98.1544 80.6938 98.059 80.4774C97.7148 79.6013 97.4914 78.6797 97.3952 77.739C97.3594 77.2744 97.3503 76.8079 97.3678 76.3418C97.3835 75.8791 97.426 75.4176 97.4949 74.9597C97.5264 74.731 97.5813 74.5075 97.6241 74.2814L97.6931 73.9433C97.7206 73.8319 97.7537 73.7222 97.7839 73.6115C98.0199 72.727 98.346 71.8695 98.7569 71.0533C99.1706 70.2391 99.6608 69.4676 100.22 68.7498C100.793 68.0518 101.422 67.4051 102.102 66.8166C103.45 65.6774 104.946 64.7352 106.546 64.0173C107.329 63.6565 108.13 63.3365 108.944 63.0585C109.753 62.7751 110.57 62.5333 111.391 62.3175C114.017 61.6278 116.584 61.2877 119.017 60.9741C121.452 60.6602 123.771 60.4109 125.965 59.9853C126.972 59.7858 127.47 59.7318 127.46 59.9256C127.451 60.011 127.319 60.1695 127.046 60.3674C126.882 60.4898 126.711 60.6019 126.534 60.7032C126.299 60.8447 126.056 60.9723 125.806 61.0852C125.407 61.262 125.004 61.4375 124.596 61.6014C124.393 61.6915 124.181 61.7481 123.973 61.8173C123.764 61.8832 123.554 61.9532 123.344 62.0153C122.501 62.2694 121.651 62.5009 120.793 62.7098C119.079 63.1184 117.356 63.4631 115.673 63.8309C114.288 64.1361 112.911 64.4344 111.56 64.8148C110.222 65.1772 108.912 65.6456 107.644 66.2157C107.643 66.233 107.643 66.2491 107.64 66.2677Z" fill="#4B5563"/>
<path id="Vector_2" d="M121.822 64.2664C122.368 63.564 122.949 62.8921 123.565 62.2536C123.722 62.0836 123.883 61.9198 124.044 61.7568C124.203 61.5917 124.355 61.4215 124.501 61.2489C124.996 60.6446 125.505 60.0639 126.019 59.4899C126.276 59.2042 126.535 58.9204 126.797 58.6421L127.191 58.2253C127.321 58.0854 127.457 57.951 127.596 57.8211L128.323 60.1986L127.722 60.0988L127.419 60.0472L127.267 60.0209L127.191 60.0077L127.153 60.0017L127.143 60.0006L127.141 60.0003C127.141 59.9955 127.139 60.0109 127.141 59.9895L127.14 59.9889L127.136 59.9864L127.118 59.9757C126.937 59.8606 126.733 59.7882 126.521 59.7637C126.317 59.7234 126.111 59.6879 125.903 59.6574C125.189 59.5442 124.462 59.4267 123.737 59.2729C123.004 59.1169 122.279 58.9212 121.567 58.6867C120.109 58.2089 118.73 57.5123 117.474 56.6196C117.378 56.5538 117.285 56.4824 117.197 56.4057C117.11 56.3253 117.027 56.2415 116.946 56.1557C116.784 55.9828 116.627 55.8075 116.482 55.6251C116.36 55.458 116.283 55.2608 116.26 55.0533C116.237 54.8458 116.267 54.6353 116.349 54.4429C116.389 54.3099 116.455 54.1866 116.544 54.0812C116.633 53.9757 116.743 53.8903 116.866 53.8304C116.989 53.7706 117.122 53.7377 117.258 53.7339C117.394 53.73 117.529 53.7553 117.654 53.8081C117.966 53.9725 118.254 54.1812 118.508 54.4281C119.109 54.9706 119.783 55.4207 120.512 55.7644C121.246 56.1083 122.02 56.3594 122.816 56.512C123.266 56.5618 123.709 56.6641 124.136 56.8168C124.797 57.1011 125.492 57.2949 126.204 57.3933C126.384 57.4213 126.561 57.4553 126.744 57.4691L127.018 57.4968C127.109 57.5021 127.202 57.5005 127.294 57.5C127.388 57.4726 127.484 57.4553 127.582 57.4483L127.856 57.4811C128.038 57.5042 128.224 57.532 128.408 57.5642L128.714 57.6158L128.765 57.6243C128.983 57.661 129.186 57.7598 129.351 57.9094C129.516 58.0591 129.636 58.2535 129.697 58.4705C129.759 58.6874 129.759 58.9181 129.698 59.136C129.637 59.3539 129.517 59.5503 129.352 59.7027C128.619 60.381 127.931 61.107 127.235 61.8092C126.547 62.4963 125.884 63.1993 125.252 63.9208C124.621 64.6298 124.047 65.3891 123.534 66.1915C123.128 66.8626 122.554 67.4118 121.873 67.7823C121.792 67.8316 121.702 67.8618 121.608 67.8707C121.515 67.8797 121.421 67.8672 121.333 67.8341C121.239 67.7951 121.154 67.737 121.082 67.6633C121.04 67.6209 121.002 67.5749 120.968 67.5256C120.938 67.4757 120.887 67.4119 120.89 67.3604C120.856 67.0559 120.868 66.7474 120.927 66.4461C120.979 66.1487 121.053 65.8558 121.15 65.5701C121.237 65.341 121.343 65.12 121.468 64.9098C121.596 64.703 121.734 64.5018 121.858 64.2944L121.822 64.2664Z" fill="#4B5563"/>
</g>
<defs>
<clipPath id="clip0_1270_3311">
<rect width="112.505" height="114.531" fill="white" transform="matrix(0.86925 0.494373 -0.481442 0.876478 55.6919 0)"/>
</clipPath>
</defs>
</svg>
