<svg width="47" height="46" viewBox="0 0 47 46" fill="none" xmlns="http://www.w3.org/2000/svg">
<g id="shape, abstract, blob, stars, spark, sparks, sparkle, shine, night, pattern, magic, dust, fairy">
<path id="Vector" d="M15.0684 8.47414C15.4453 9.09514 15.8888 9.68118 16.4079 10.1881C16.6666 10.442 16.9391 10.6803 17.231 10.8928C17.523 11.1044 17.8287 11.2939 18.1484 11.4568C18.4181 11.5957 18.6999 11.7061 18.9853 11.8036L19.0158 11.8137C19.3207 11.9186 19.4832 12.2498 19.3779 12.5534C19.3244 12.7089 19.2098 12.8276 19.0712 12.892C18.5964 13.1109 18.117 13.3041 17.6578 13.501C17.2578 13.6731 16.8735 13.8433 16.5169 14.0374C16.1594 14.2297 15.8333 14.4523 15.5294 14.7071C15.4537 14.7706 15.3779 14.835 15.3068 14.9049L15.1978 15.0071C15.1627 15.0411 15.1386 15.0733 15.1091 15.1055C15.0518 15.1708 14.9918 15.2297 14.9382 15.3116C14.8837 15.3898 14.8255 15.4597 14.7737 15.5443L14.6185 15.7964C14.5677 15.882 14.5216 15.974 14.4735 16.0623L14.4015 16.1957L14.3349 16.3355L14.2019 16.6143C13.8638 17.3742 13.5839 18.1765 13.3493 18.9897C13.2366 19.3973 13.1266 19.8067 13.0407 20.217C12.9548 20.6255 12.8772 21.0386 12.8393 21.4287C12.8024 21.8105 12.4615 22.0901 12.0781 22.0533C11.7862 22.0248 11.5534 21.8215 11.4758 21.5565L11.474 21.5483C11.3289 21.0496 11.2375 20.5758 11.1479 20.1057L10.8975 18.7156C10.7608 17.9621 10.6148 17.2187 10.4125 16.5251C10.3091 16.1819 10.188 15.8525 10.0467 15.5683L9.93492 15.3714C9.89058 15.3042 9.84162 15.2352 9.79543 15.1671C9.69566 15.0328 9.59219 14.8994 9.47579 14.7725C9.24762 14.5167 8.99173 14.2747 8.71736 14.0475C8.44115 13.823 8.1483 13.6123 7.84345 13.4164C7.23375 13.0254 6.57508 12.6942 5.90071 12.432C5.52196 12.2848 5.33443 11.8588 5.48316 11.4816C5.55891 11.2875 5.70857 11.144 5.88778 11.0704L5.89425 11.0676C6.42728 10.8505 6.95938 10.6325 7.45546 10.3758C7.96077 10.1292 8.42544 9.84034 8.85316 9.51926L9.16632 9.27086L9.45362 8.99946C9.55432 8.91298 9.63561 8.80994 9.72337 8.71242C9.80744 8.61214 9.90351 8.52106 9.97557 8.40974L10.2074 8.0905C10.2804 7.9801 10.3442 7.86234 10.4134 7.7501L10.516 7.57898C10.5474 7.51918 10.5751 7.45754 10.6047 7.39774L10.7811 7.03434C11.0832 6.33882 11.3474 5.59178 11.5728 4.83738C11.6227 4.65522 11.6763 4.48962 11.7335 4.34058C11.7622 4.26606 11.7917 4.19522 11.8222 4.12806C11.8305 4.10782 11.8352 4.10322 11.8416 4.09402C11.8472 4.08574 11.8536 4.07746 11.8601 4.0701C11.873 4.05446 11.8869 4.03974 11.9026 4.02502C11.9636 3.96614 12.0476 3.90542 12.1289 3.82078C12.2111 3.73706 12.2878 3.6331 12.3488 3.52362C12.5262 3.19886 12.5502 3.00474 12.6638 3.13078C12.6915 3.16298 12.7248 3.21726 12.7617 3.3019C12.7987 3.38562 12.8384 3.50246 12.867 3.6515C12.8957 3.79962 12.9095 3.9781 12.9031 4.16486C12.9012 4.21086 12.8984 4.26054 12.8957 4.30378C12.8929 4.33506 12.8911 4.36726 12.8883 4.40038C12.8827 4.46662 12.8754 4.5347 12.8661 4.60554C12.8439 4.78494 12.8172 4.9671 12.7876 5.15202C12.7562 5.33694 12.7081 5.52278 12.6647 5.70954C12.5844 6.08398 12.4486 6.45566 12.3266 6.81446C12.2629 6.97638 12.1927 7.13646 12.1262 7.29746L12.0255 7.5385L11.9072 7.77402C11.8259 7.93042 11.752 8.08958 11.6643 8.2423L11.3862 8.69586C10.9917 9.28834 10.5141 9.83206 9.97372 10.2939L9.55801 10.6242C9.41667 10.7291 9.26979 10.8229 9.12475 10.9232C8.98156 11.0262 8.83099 11.1099 8.68133 11.1983C8.53168 11.2857 8.38387 11.3786 8.23052 11.4531L7.77509 11.6905L7.31504 11.9076L7.08502 12.0152L6.85407 12.1155L6.39125 12.317L6.38571 11.1743C7.09056 11.431 7.76862 11.7429 8.42082 12.1146C8.84484 12.3565 9.26794 12.6261 9.66425 12.9389C10.0606 13.2508 10.4291 13.6068 10.7303 14.0098C10.8282 14.1496 10.9308 14.283 11.0195 14.4311C11.0647 14.5057 11.1128 14.571 11.1552 14.6538L11.2818 14.8948C11.328 14.9758 11.3529 15.054 11.389 15.134C11.4213 15.2131 11.4583 15.2932 11.486 15.3714C11.5377 15.5278 11.6005 15.686 11.643 15.8406C11.8315 16.4625 11.9589 17.0734 12.0763 17.6787C12.1917 18.2841 12.2915 18.8849 12.3941 19.4755C12.4975 20.0643 12.601 20.6522 12.7432 21.183L11.5211 21.2897C11.5765 20.8058 11.6735 20.3569 11.7825 19.9097C11.9146 19.3761 12.067 18.8536 12.2361 18.3338C12.4042 17.814 12.5881 17.2988 12.8005 16.79C13.013 16.2813 13.2403 15.7762 13.5322 15.284C13.6791 15.0383 13.8361 14.7945 14.0255 14.5572C14.0486 14.5277 14.0698 14.4974 14.0957 14.4679L14.1761 14.3805L14.3386 14.2076C14.3931 14.1496 14.4458 14.1082 14.5003 14.0585C14.5548 14.0107 14.6065 13.961 14.6629 13.9159C14.9576 13.6648 15.28 13.4412 15.6135 13.2453C15.947 13.0493 16.2906 12.8846 16.6306 12.7374C17.3123 12.4449 17.9701 12.2057 18.5964 11.9122L18.6694 12.8386C18.0597 12.6436 17.4814 12.3667 16.9474 12.0299C16.4163 11.6886 15.9303 11.2884 15.4897 10.8487C15.0518 10.4061 14.661 9.92222 14.3146 9.4107C13.9691 8.9001 13.6772 8.34718 13.4315 7.78966C13.1183 7.07298 12.9012 6.34986 12.7608 5.6479C12.6185 4.94594 12.5539 4.2633 12.5529 3.61562C12.5539 3.37182 12.6065 3.22462 12.6832 3.18414L12.5991 3.39574C12.5788 3.41414 12.5483 3.4307 12.5178 3.43806C12.4874 3.44542 12.4587 3.44542 12.4384 3.44358C12.3968 3.43898 12.3811 3.43346 12.3774 3.43898C12.3756 3.44358 12.3867 3.46106 12.4329 3.47854C12.4559 3.48682 12.4892 3.49418 12.528 3.4905C12.5668 3.48774 12.6093 3.47394 12.6407 3.45462L12.7534 3.17034C12.8532 3.18138 12.9705 3.33686 13.0703 3.6377C13.3687 4.5393 13.6772 5.47218 14.0375 6.35998C14.3312 7.08862 14.6379 7.82554 15.0453 8.47506C15.0518 8.47322 15.0583 8.47138 15.0666 8.46954L15.0684 8.47414Z" fill="#374151"/>
<path id="Vector_2" d="M31.1886 17.836C31.3133 18.1967 31.4463 18.5546 31.5849 18.9069C31.62 18.9934 31.6551 19.0854 31.6902 19.1664C31.7253 19.2427 31.7558 19.3218 31.7946 19.3973C31.8694 19.5482 31.9516 19.6963 32.0431 19.838C32.4098 20.4074 32.9198 20.895 33.523 21.2759C34.0366 21.608 34.6177 21.8656 35.2219 22.0607C35.5267 22.1591 35.693 22.4848 35.5951 22.7875C35.547 22.9356 35.4445 23.0506 35.3179 23.1187L35.3022 23.127C35.1747 23.195 35.0454 23.2567 34.9226 23.334C34.214 23.7581 33.5775 24.3312 33.0242 24.9743C32.4699 25.6183 31.9987 26.3387 31.62 27.0986C31.2422 27.8585 30.9549 28.6617 30.8034 29.4759C30.6528 30.2882 30.638 31.1153 30.8246 31.866L29.4509 32.1457C29.3059 31.3472 29.1646 30.5541 28.9927 29.7786C28.8385 29.0803 28.6629 28.393 28.4431 27.7288C28.2223 27.0655 27.9581 26.4242 27.6366 25.8207C27.5553 25.6717 27.4694 25.5226 27.3844 25.3773C27.2976 25.2356 27.208 25.0967 27.1119 24.9642C26.9207 24.6974 26.7119 24.4499 26.4865 24.2328C26.0347 23.7967 25.5128 23.5051 24.9779 23.4342C24.5751 23.3809 24.2915 23.012 24.3451 22.6108C24.3765 22.3781 24.5133 22.1858 24.7008 22.0754L24.7063 22.0726C25.195 21.7893 25.6467 21.4516 26.0375 21.0487C26.1391 20.9521 26.2278 20.8426 26.323 20.7396C26.4107 20.6292 26.5031 20.5234 26.5853 20.4084C26.7562 20.1839 26.9086 19.9428 27.05 19.6944C27.6172 18.699 27.9572 17.5508 28.1696 16.3714C28.3073 15.5995 28.4403 14.8065 28.5373 14.018C28.5826 13.6408 28.65 13.329 28.7341 13.0732C28.7756 12.9453 28.8227 12.8312 28.8736 12.73C28.8985 12.6491 28.9318 12.5589 28.9715 12.4918C29.0112 12.4218 29.0555 12.3703 29.0916 12.3381C29.2985 12.1808 29.1396 12.4577 29.3863 12.6822C29.4463 12.7328 29.5341 12.7503 29.5913 12.742C29.62 12.7411 29.6412 12.731 29.6551 12.7383C29.668 12.7816 29.681 12.8266 29.692 12.8754C29.7401 13.0695 29.7715 13.3096 29.7816 13.5912C29.8066 14.3042 29.7493 15.0871 29.6311 15.8222C29.5174 16.5296 29.3715 17.2344 29.171 17.9317C29.0703 18.2795 28.9585 18.6263 28.8264 18.9667C28.6962 19.308 28.5502 19.6457 28.3821 19.9741C28.0505 20.6328 27.632 21.2603 27.1276 21.8187C26.8735 22.0966 26.601 22.3578 26.3091 22.5989C26.0153 22.8362 25.7059 23.0534 25.3835 23.2502L25.1516 22.0883C25.8213 22.1628 26.4523 22.4342 26.9715 22.8004C27.4084 23.1067 27.7964 23.4756 28.1197 23.8758C28.2842 24.0755 28.4311 24.2834 28.5641 24.4959L28.6611 24.656C28.6906 24.7094 28.7193 24.7627 28.7488 24.8161C28.8052 24.9228 28.8634 25.0286 28.9133 25.1362C29.4352 26.2356 29.7983 27.3764 30.0837 28.5145C30.3683 29.6544 30.5733 30.7961 30.7618 31.9222L30.7636 31.9332C30.82 32.2727 30.59 32.5947 30.2482 32.6508C29.9193 32.7051 29.607 32.4926 29.5341 32.1724C29.3937 31.5505 29.3558 30.9194 29.4066 30.3076C29.5045 29.1612 29.8297 28.0701 30.2925 27.0535C30.7599 26.0388 31.3678 25.093 32.1096 24.2567C32.8653 23.4066 33.7632 22.6578 34.8256 22.1472L34.8967 23.0966C34.5604 22.9807 34.2251 22.8611 33.899 22.7093C33.572 22.5639 33.2533 22.3928 32.9456 22.2005C32.6371 22.011 32.3452 21.7893 32.0708 21.5473C31.7964 21.3054 31.5424 21.0358 31.3207 20.7414C31.098 20.4479 30.9041 20.1324 30.7461 19.8002C30.7091 19.7174 30.6666 19.6319 30.6334 19.5518L30.5345 19.3136C30.4689 19.1544 30.4071 18.9952 30.3452 18.8352C30.1004 18.1958 29.8759 17.5518 29.6726 16.8986C29.4463 16.1699 29.2717 15.444 29.1784 14.7329C29.0879 14.0245 29.0694 13.3207 29.2107 12.6859C29.2551 12.523 29.3105 12.4145 29.3687 12.363L29.3558 12.2903C29.3502 12.2572 29.3327 12.2176 29.3068 12.1863C29.2809 12.1541 29.2514 12.132 29.2283 12.1164C29.1821 12.0851 29.1581 12.0686 29.1535 12.0502C29.1507 12.0336 29.1627 12.0106 29.2366 12.0051C29.2726 12.0032 29.3299 12.0106 29.3937 12.0446C29.4574 12.0768 29.5165 12.1366 29.5525 12.1928L29.5876 12.386C29.6181 12.4237 29.644 12.4789 29.6652 12.5488C29.6874 12.6196 29.6957 12.7024 29.7151 12.811C29.7327 12.9196 29.741 13.0254 29.765 13.1367C29.7863 13.2471 29.8075 13.3584 29.8297 13.4697C29.8833 13.6951 29.9322 13.9205 29.996 14.1496C30.117 14.6059 30.2556 15.0687 30.4061 15.5287C30.65 16.2849 30.8865 17.0734 31.1729 17.8333C31.1803 17.8333 31.1867 17.8333 31.195 17.8333L31.1886 17.836Z" fill="#374151"/>
<path id="Vector_3" d="M19.2347 31.3232C19.4638 31.9774 19.8518 32.5284 20.4089 32.9222C20.4606 32.9654 20.5216 32.9976 20.5798 33.0326L20.7562 33.1384C20.88 33.201 21.0093 33.2543 21.1368 33.3114L21.1821 33.3316C21.4722 33.4613 21.6015 33.7999 21.4712 34.0888C21.4066 34.2332 21.2865 34.3381 21.1488 34.3905C21.0472 34.4292 20.9465 34.4678 20.8486 34.5083C20.6454 34.592 20.4523 34.6757 20.2814 34.7659C20.1105 34.857 19.9608 34.9526 19.8269 35.0667C19.5608 35.293 19.3262 35.6077 19.1285 35.9508C18.9326 36.2958 18.7719 36.6675 18.6758 37.0309C18.5779 37.3906 18.5585 37.754 18.6324 37.9758L17.2781 38.3134C17.1737 37.8589 17.0629 37.4173 16.9271 36.9978C16.7183 36.3538 16.4449 35.7622 16.0597 35.2875C15.6754 34.81 15.183 34.4466 14.6583 34.3059C14.2666 34.201 14.0356 33.7999 14.1409 33.4098C14.1927 33.2194 14.3155 33.0666 14.4735 32.9728L14.5068 32.9535L14.686 32.8477L14.7756 32.7952L14.8606 32.7345L15.0324 32.614L15.195 32.4778L15.2763 32.4098L15.353 32.3352L15.5072 32.1853L15.6513 32.0234L15.7234 31.9424C15.7465 31.9148 15.7687 31.8844 15.7908 31.8559C16.1557 31.3978 16.4578 30.8697 16.6952 30.303C16.8476 29.9469 17.0269 29.589 17.1811 29.2229C17.2597 29.0499 17.3456 28.9101 17.4546 28.8034C17.559 28.6948 17.6781 28.6166 17.8065 28.5623C17.9932 28.4832 18.1622 28.5126 18.2786 28.6414C18.3941 28.7693 18.4624 28.9984 18.4273 29.2974C18.3848 29.6755 18.2647 30.0766 18.1049 30.4382C18.031 30.6185 17.9423 30.7952 17.861 30.9727L17.7271 31.2349L17.6597 31.3656L17.5867 31.4944C17.4001 31.8403 17.1802 32.1733 16.9446 32.4953C16.7082 32.8182 16.4347 33.12 16.1409 33.4052C15.8407 33.6858 15.5063 33.936 15.146 34.1568L15.0148 32.9912C15.3003 33.0556 15.5774 33.155 15.8379 33.281C16.3525 33.5257 16.8366 33.8864 17.1386 34.328C17.3437 34.6205 17.5192 34.9296 17.6726 35.2378C17.8259 35.546 17.9534 35.8598 18.0671 36.1726C18.2906 36.8 18.4477 37.4274 18.5687 38.042L18.5714 38.0576C18.638 38.3944 18.4181 38.7219 18.08 38.7881C17.7576 38.8516 17.4435 38.6538 17.3567 38.3438C17.2671 38.0208 17.2643 37.7126 17.2975 37.4293C17.3373 37.0972 17.4204 36.7917 17.522 36.5019C17.6246 36.2121 17.7483 35.937 17.8897 35.6712C18.031 35.4062 18.1899 35.1514 18.3747 34.9066C18.5604 34.6628 18.7691 34.4273 19.025 34.2212C19.2948 33.9995 19.6052 33.8266 19.8989 33.7005C20.1955 33.5708 20.4754 33.476 20.7488 33.3776L20.7599 34.3335C20.0578 34.063 19.3973 33.6159 18.9059 33.028C18.8467 32.9535 18.7913 32.8762 18.734 32.7998L18.65 32.6848C18.6241 32.6453 18.601 32.6048 18.5761 32.5643L18.431 32.3224L18.3082 32.0712L18.2472 31.9461L18.1964 31.8182L18.0957 31.5615L18.0135 31.3012C17.9858 31.2147 17.959 31.1282 17.9396 31.0399C17.9146 30.9405 17.8915 30.8412 17.8712 30.7427C17.8555 30.6443 17.8407 30.5458 17.8287 30.4483C17.8149 30.3508 17.8084 30.2542 17.8056 30.1585C17.8019 30.0628 17.7992 29.9681 17.801 29.8742C17.8139 29.4989 17.8712 29.1419 17.9885 28.8089C18.0948 28.5025 18.4024 28.5108 18.4938 28.8411C18.6259 29.3094 18.7433 29.7878 18.8744 30.2404C18.9788 30.613 19.0648 30.9893 19.2098 31.3288C19.2163 31.3269 19.2227 31.326 19.2301 31.3242L19.2347 31.3232Z" fill="#374151"/>
<path id="Vector_4" d="M40.7322 8.54769C40.8154 8.83473 40.929 9.10981 41.0611 9.37385C41.0962 9.43825 41.1258 9.50725 41.1655 9.56889L41.2791 9.75841C41.3623 9.87801 41.4435 10.0022 41.5378 10.1126C41.6736 10.2856 41.8315 10.4383 41.9978 10.5791L42.0052 10.5855C42.2546 10.7962 42.286 11.1679 42.0745 11.4172C42.0412 11.4567 42.0006 11.4926 41.9599 11.5211C41.887 11.5717 41.814 11.6233 41.7429 11.6757C41.281 12.0584 40.8994 12.5644 40.6343 13.1247C40.5004 13.4035 40.3923 13.6951 40.3202 13.9849C40.3045 14.0567 40.2833 14.1293 40.274 14.2002C40.262 14.271 40.2482 14.3428 40.2435 14.4099L40.2334 14.5111V14.605L40.2306 14.6519C40.2306 14.6666 40.2334 14.6795 40.2343 14.6924C40.2371 14.7191 40.2389 14.7457 40.2398 14.7724L40.2417 14.8046C40.2583 15.1846 39.9627 15.5075 39.5812 15.5241C39.2736 15.5379 39.0029 15.3474 38.9013 15.0751C38.8033 14.8111 38.7202 14.5479 38.65 14.3014C38.5789 14.0557 38.5151 13.8156 38.444 13.6022C38.4274 13.5479 38.4098 13.4955 38.3913 13.4467C38.3729 13.397 38.3562 13.3455 38.3368 13.2977C38.2962 13.2057 38.2592 13.1091 38.213 13.029C38.1724 12.9407 38.1197 12.8699 38.0736 12.7917C38.0477 12.7558 38.019 12.7236 37.9932 12.6886L37.9535 12.6371L37.9073 12.592C37.6726 12.3464 37.3521 12.1605 36.9567 12.0345C36.5715 11.9121 36.359 11.5018 36.4819 11.1182C36.5382 10.9415 36.6565 10.8017 36.8043 10.7134L36.8403 10.6922L37.0214 10.5846C37.0518 10.5662 37.0823 10.5496 37.1119 10.5312L37.1959 10.4696C37.2514 10.4282 37.3105 10.3905 37.365 10.3472L37.522 10.212C37.7225 10.0215 37.9137 9.81821 38.0643 9.57717C38.2186 9.34073 38.3553 9.08589 38.4588 8.80989C38.5179 8.67649 38.5558 8.53021 38.6047 8.38945L38.662 8.17049L38.6906 8.06101L38.7128 7.94877C38.783 7.64057 38.8689 7.32133 38.9502 7.00117C38.9669 6.92389 38.9918 6.85397 39.0223 6.78957C39.0546 6.71965 39.087 6.69389 39.1359 6.55405C39.1858 6.44457 39.2505 6.35901 39.3142 6.30841C39.3779 6.25689 39.4371 6.23665 39.4851 6.23665C39.6246 6.24125 39.6579 6.43169 39.7955 6.58625C39.8602 6.66353 39.9599 6.72425 40.0486 6.72701C40.092 6.72977 40.1271 6.72057 40.1484 6.71229L40.1521 6.71045C40.1521 6.71045 40.1549 6.71045 40.1549 6.71505L40.1604 6.73621C40.1632 6.75001 40.1669 6.76473 40.1696 6.77945C40.1752 6.80889 40.1798 6.83925 40.1835 6.87145C40.1918 6.95149 40.1974 7.03429 40.2001 7.11709C40.2001 7.20081 40.1955 7.28545 40.189 7.37009C40.1798 7.53937 40.1465 7.70957 40.1124 7.87425C40.0246 8.25145 39.9285 8.62773 39.7909 8.99757C39.656 9.36649 39.5008 9.73265 39.2948 10.0795C38.8985 10.7778 38.323 11.408 37.6264 11.8634C37.5867 11.8901 37.5479 11.9177 37.5073 11.9443L37.3983 10.6885C37.5996 10.7493 37.8066 10.7953 38.007 10.8937C38.1077 10.9388 38.2066 10.9839 38.2999 11.0492C38.347 11.0795 38.3923 11.1108 38.4375 11.1439C38.4828 11.1752 38.5262 11.2093 38.5659 11.2497C38.8394 11.4926 39.0703 11.787 39.2542 12.0879C39.4398 12.3915 39.5664 12.707 39.6662 13.006C39.7669 13.305 39.8445 13.5967 39.9156 13.8681C39.9876 14.1395 40.0579 14.3961 40.1327 14.6372L38.9373 14.9067C38.9345 14.7871 38.9271 14.6593 38.941 14.5516C38.9622 14.2646 39.0204 14.0088 39.0897 13.7577L39.1433 13.5718L39.2061 13.3906C39.2458 13.2682 39.2967 13.1532 39.3438 13.0355C39.5405 12.569 39.7973 12.132 40.1133 11.7355C40.4625 11.3022 40.88 10.9121 41.3678 10.6131L41.3345 11.4448C40.8449 11.0409 40.4385 10.5533 40.1401 10.0197L40.0283 9.81913L39.9285 9.61397L39.8786 9.51185L39.8352 9.40697L39.7484 9.19721C39.644 8.91477 39.5498 8.62957 39.4823 8.33885C39.3179 7.67093 39.3539 7.00025 39.6172 6.45193C39.6523 6.37833 39.704 6.32773 39.7604 6.30381C39.7706 6.29921 39.7752 6.28817 39.7706 6.27805C39.7706 6.27621 39.7687 6.27437 39.7669 6.27253L39.6819 6.17961C39.6468 6.14097 39.583 6.12073 39.5442 6.11337C39.5036 6.10509 39.4796 6.09865 39.4703 6.08301C39.462 6.06829 39.4666 6.04253 39.5128 6.01217C39.5359 5.99745 39.5719 5.98181 39.62 5.97629C39.6671 5.96985 39.7244 5.97629 39.7752 5.99193L39.971 6.30381C40.0375 6.33509 40.0939 6.39949 40.1207 6.49517C40.2288 6.87697 40.3313 7.26245 40.444 7.63505C40.5355 7.94049 40.602 8.25789 40.711 8.55689C40.7174 8.55505 40.7239 8.55413 40.7313 8.55229L40.7322 8.54769Z" fill="#374151"/>
<path id="Vector_5" d="M38.8181 36.4164C38.8357 36.4918 38.8532 36.57 38.8726 36.6418C38.8818 36.6795 38.892 36.7136 38.9012 36.7448C38.9105 36.777 38.9197 36.8102 38.9317 36.8414C38.9751 36.9693 39.0296 37.0963 39.0952 37.2131C39.2264 37.4486 39.3982 37.6566 39.5978 37.8065C39.7086 37.8884 39.8278 37.9537 39.9544 37.9951L39.995 38.0089C40.2971 38.1083 40.4615 38.433 40.3608 38.7339C40.3137 38.8756 40.2149 38.9878 40.0939 39.055C39.9645 39.1267 39.8426 39.2086 39.7327 39.3043C39.5045 39.5039 39.3142 39.7468 39.135 40.0292C39.0454 40.17 38.9576 40.3209 38.8689 40.4782L38.7331 40.7192C38.6915 40.7947 38.6564 40.8591 38.6223 40.9318C38.4865 41.2142 38.3876 41.5086 38.346 41.7975C38.3026 42.0864 38.3137 42.3651 38.3802 42.6181L37.025 42.9107C36.9188 42.4341 36.8052 41.9732 36.6573 41.5417C36.4809 41.0238 36.2564 40.55 35.9534 40.1544C35.6513 39.7569 35.2781 39.4386 34.867 39.2629C34.4947 39.1028 34.322 38.6722 34.4827 38.3015C34.5539 38.1368 34.6786 38.0117 34.8282 37.9372L34.8633 37.9197L35.0305 37.836L35.1146 37.7955L35.1941 37.7467L35.353 37.6492L35.5026 37.537L35.5784 37.4818L35.6486 37.4183L35.789 37.2932L35.9183 37.1542C35.9396 37.1312 35.9627 37.1092 35.983 37.0852L36.0421 37.0098C36.0818 36.9592 36.1225 36.9104 36.1613 36.8589L36.2703 36.6979C36.3082 36.6455 36.3405 36.5884 36.3728 36.5314C36.4052 36.4744 36.4393 36.4182 36.4698 36.3603C36.5252 36.2398 36.5899 36.1248 36.6361 35.9978C36.661 35.9352 36.6869 35.8745 36.7109 35.811L36.7747 35.6188C36.8689 35.3124 36.9945 35.0042 37.0841 34.684C37.1303 34.5332 37.1922 34.4025 37.2809 34.3059C37.316 34.3243 37.3862 34.3666 37.4768 34.3593C37.5673 34.3538 37.6504 34.2903 37.692 34.2102C37.8102 33.9683 37.7105 33.7696 37.8463 33.7456C37.8805 33.742 37.935 33.753 38.0079 33.8054C38.08 33.856 38.1659 33.9582 38.2158 34.086C38.2417 34.1495 38.2592 34.2158 38.2712 34.2802C38.2758 34.3096 38.2805 34.339 38.2851 34.3694C38.2888 34.3832 38.2925 34.397 38.2962 34.4117C38.31 34.4697 38.3193 34.5322 38.3239 34.6003C38.3396 34.7724 38.3211 34.9518 38.3008 35.1312C38.2869 35.2204 38.2675 35.3096 38.2481 35.398C38.238 35.4421 38.2278 35.4863 38.2167 35.5295C38.2029 35.5728 38.1899 35.616 38.177 35.6583C37.9562 36.3713 37.6338 37.0576 37.1821 37.675C36.9557 37.9832 36.6897 38.2656 36.3978 38.5241C36.1012 38.7799 35.7696 38.9942 35.4185 39.181L35.4148 37.997C35.5663 38.0558 35.7179 38.1184 35.861 38.1938C36.3063 38.4202 36.7313 38.7394 36.9899 39.1313C37.7437 40.2684 38.1068 41.4939 38.3119 42.6549L38.3183 42.6899C38.3775 43.0248 38.153 43.3449 37.8158 43.4038C37.4832 43.4618 37.1664 43.2437 37.1008 42.9162C37.0721 42.7736 37.0518 42.6292 37.0453 42.4866C37.0158 41.9005 37.135 41.3402 37.3363 40.8361C37.437 40.584 37.5608 40.3402 37.7003 40.1148C37.8232 39.9161 37.9497 39.7082 38.0929 39.4993C38.2712 39.239 38.4754 38.974 38.7193 38.7348C38.9604 38.4938 39.243 38.2877 39.5377 38.1221L39.6588 39.0393C39.3225 38.9344 39.0176 38.7596 38.7654 38.5416C38.5114 38.3245 38.3063 38.0687 38.1428 37.7973C38.0597 37.6612 37.9904 37.5195 37.9266 37.375C37.8666 37.2315 37.8121 37.077 37.7733 36.9371C37.6911 36.6528 37.631 36.375 37.5784 36.0953C37.5146 35.7522 37.4869 35.4145 37.5082 35.0861C37.5294 34.7586 37.5968 34.4384 37.7345 34.155C37.7659 34.0934 37.8075 34.0483 37.8537 34.0226L37.8518 34.0373C37.8611 34.0483 37.8611 34.075 37.8472 34.0989C37.8333 34.1238 37.8093 34.1422 37.7918 34.1541C37.7548 34.178 37.7354 34.1918 37.7326 34.2148C37.7326 34.2351 37.7419 34.271 37.8195 34.2857C37.8574 34.2921 37.9211 34.2857 37.9848 34.2443C38.0486 34.2047 38.0938 34.1357 38.1114 34.0851L38.1169 34.0336C38.1724 34.0686 38.2139 34.1256 38.2361 34.2093C38.3414 34.5966 38.4523 35.0024 38.5622 35.4062C38.6527 35.7402 38.7036 36.0935 38.7959 36.4192C38.8024 36.4182 38.8089 36.4173 38.8163 36.4164H38.8181Z" fill="#374151"/>
</g>
</svg>
